<svg width="79" height="33" viewBox="0 0 79 33" fill="none" xmlns="http://www.w3.org/2000/svg">
<path d="M0 9.44L2.32 8.96C2.39467 9.19467 2.50667 9.408 2.656 9.6C2.99733 10.0267 3.44533 10.24 4 10.24C4.576 10.24 5.024 10.064 5.344 9.712C5.67467 9.36 5.84 8.86933 5.84 8.24V0.799999H8.24V8.24C8.24 9.56267 7.86133 10.6027 7.104 11.36C6.35733 12.1067 5.32267 12.48 4 12.48C2.624 12.48 1.54667 11.9733 0.768 10.96C0.416 10.5333 0.16 10.0267 0 9.44ZM11.7631 7.6V0.799999H14.1631V7.6C14.1631 8.368 14.3765 8.976 14.8031 9.424C15.2405 9.86133 15.8271 10.08 16.5631 10.08C17.2991 10.08 17.8805 9.86133 18.3071 9.424C18.7445 8.976 18.9631 8.368 18.9631 7.6V0.799999H21.3631V7.6C21.3631 9.04 20.9311 10.1867 20.0671 11.04C19.2031 11.8933 18.0351 12.32 16.5631 12.32C15.0911 12.32 13.9231 11.8933 13.0591 11.04C12.1951 10.1867 11.7631 9.04 11.7631 7.6ZM24.3188 8.48H26.7988C26.8948 8.8 27.0494 9.08267 27.2628 9.328C27.7321 9.88267 28.4308 10.16 29.3588 10.16C30.7454 10.16 31.4388 9.73333 31.4388 8.88C31.4388 8.66667 31.3641 8.47467 31.2148 8.304C31.0761 8.13333 30.8521 7.984 30.5428 7.856C30.2441 7.728 29.9508 7.62667 29.6628 7.552C29.3854 7.46667 29.0228 7.36533 28.5748 7.248C28.5108 7.23733 28.4574 7.22667 28.4148 7.216C28.3828 7.20533 28.3348 7.19467 28.2708 7.184C28.2174 7.16267 28.1694 7.14667 28.1268 7.136C25.9081 6.60267 24.7988 5.53067 24.7988 3.92C24.7988 2.96 25.1881 2.14933 25.9668 1.488C26.7561 0.816 27.8068 0.48 29.1188 0.48C30.8254 0.48 32.1161 1.056 32.9908 2.208C33.3534 2.72 33.6094 3.29067 33.7588 3.92H31.2788C31.2148 3.696 31.0921 3.48267 30.9108 3.28C30.5054 2.85333 29.9081 2.64 29.1188 2.64C28.5108 2.64 28.0521 2.75733 27.7428 2.992C27.4334 3.216 27.2788 3.49867 27.2788 3.84C27.2788 4.45867 27.9828 4.928 29.3908 5.248C29.7534 5.33333 29.9774 5.38667 30.0628 5.408C30.1588 5.42933 30.3774 5.488 30.7188 5.584C31.0708 5.68 31.3054 5.76 31.4228 5.824C31.5508 5.87733 31.7588 5.968 32.0468 6.096C32.3454 6.21333 32.5534 6.32533 32.6708 6.432C32.7988 6.53867 32.9588 6.68267 33.1508 6.864C33.3534 7.03467 33.4974 7.21067 33.5828 7.392C33.6681 7.57333 33.7428 7.78667 33.8068 8.032C33.8814 8.26667 33.9188 8.52267 33.9188 8.8C33.9188 9.792 33.5188 10.6293 32.7188 11.312C31.9188 11.984 30.7988 12.32 29.3588 12.32C27.4601 12.32 26.0681 11.68 25.1828 10.4C24.7668 9.84533 24.4788 9.20533 24.3188 8.48ZM36.2412 3.04V0.799999H45.8412V3.04H42.2412V12H39.8412V3.04H36.2412ZM48.6431 12V0.799999H51.0431V12H48.6431ZM55.9755 10.64C54.8235 9.50933 54.2475 8.096 54.2475 6.4C54.2475 4.704 54.8235 3.296 55.9755 2.176C57.1382 1.04533 58.6155 0.48 60.4075 0.48C62.4235 0.48 63.9702 1.18933 65.0475 2.608C65.5382 3.23733 65.8848 3.94133 66.0875 4.72H63.6075C63.4688 4.35733 63.2555 4.02667 62.9675 3.728C62.2955 3.056 61.4422 2.72 60.4075 2.72C59.3622 2.72 58.4982 3.06667 57.8155 3.76C57.1435 4.44267 56.8075 5.32267 56.8075 6.4C56.8075 7.52 57.1328 8.416 57.7835 9.088C58.4448 9.74933 59.3195 10.08 60.4075 10.08C61.4955 10.08 62.3702 9.70667 63.0315 8.96C63.3302 8.608 63.5488 8.23467 63.6875 7.84H66.1675C65.9222 8.68267 65.5542 9.42933 65.0635 10.08C63.9115 11.5733 62.3595 12.32 60.4075 12.32C58.6155 12.32 57.1382 11.76 55.9755 10.64ZM69.2806 12V0.799999H77.6806V3.04H71.6806V5.28H76.4806V7.36H71.6806V9.76H77.6806V12H69.2806ZM1.28 32V20.8H8.88V22.16H2.72V26H7.6V27.36H2.72V32H1.28ZM12.1613 32V20.8H13.6013V32H12.1613ZM17.7613 32V20.8H19.8413L25.3453 30.24H25.3773L25.3613 30.08V20.8H26.8013V32H24.7213L19.2173 22.56H19.1853L19.2013 22.72V31.984L17.7613 32ZM29.995 32L32.875 20.8H37.275L40.155 32H38.715L37.835 28.72H32.315L31.435 32H29.995ZM32.635 27.36H37.515L36.155 22.16H33.995L32.635 27.36ZM43.3519 32V20.8H45.4319L50.9359 30.24H50.9679L50.9519 30.08V20.8H52.3919V32H50.3119L44.8079 22.56H44.7759L44.7919 22.72V31.984L43.3519 32ZM57.6336 30.656C56.535 29.536 55.9856 28.1173 55.9856 26.4C55.9856 24.6827 56.535 23.2693 57.6336 22.16C58.743 21.04 60.1403 20.48 61.8256 20.48C63.7136 20.48 65.2016 21.1627 66.2896 22.528C66.7696 23.1147 67.1216 23.792 67.3456 24.56H65.9056C65.6816 24.0267 65.399 23.5733 65.0576 23.2C64.215 22.2933 63.1376 21.84 61.8256 21.84C60.535 21.84 59.479 22.2613 58.6576 23.104C57.8363 23.9467 57.4256 25.0453 57.4256 26.4C57.4256 27.7547 57.8363 28.8533 58.6576 29.696C59.479 30.5387 60.535 30.96 61.8256 30.96C63.159 30.96 64.263 30.4693 65.1376 29.488C65.4896 29.0827 65.7723 28.5867 65.9856 28H67.4256C67.1696 28.832 66.7963 29.552 66.3056 30.16C65.1856 31.6 63.6923 32.32 61.8256 32.32C60.1403 32.32 58.743 31.7653 57.6336 30.656ZM70.9425 32V20.8H78.7825V22.16H72.3825V25.68H77.5825V27.04H72.3825V30.64H78.7825V32H70.9425Z" fill="white"/>
</svg>
