
<svg width="26" height="26" viewBox="0 0 26 26" fill="none" xmlns="http://www.w3.org/2000/svg">
    <path d="M23.42 6.00009L17.26 0.760091C16.9144 0.46456 16.4785 0.295596 16.024 0.281053C15.5696 0.26651 15.1237 0.407258 14.76 0.680091L12.09 2.68009L10.41 1.00009C10.0353 0.627589 9.52837 0.418506 9 0.418506C8.47163 0.418506 7.96473 0.627589 7.59 1.00009L2.59 6.05009C1.87589 6.14859 1.22112 6.50094 0.745507 7.04266C0.269898 7.58437 0.00525333 8.27923 0 9.00009V23.0001C0 23.7957 0.316071 24.5588 0.87868 25.1214C1.44129 25.684 2.20435 26.0001 3 26.0001H23C23.7956 26.0001 24.5587 25.684 25.1213 25.1214C25.6839 24.5588 26 23.7957 26 23.0001V9.00009C26.0072 8.27213 25.7494 7.5664 25.2747 7.01445C24.8 6.46249 24.1408 6.10198 23.42 6.00009ZM24 18.0001H22C21.4696 18.0001 20.9609 17.7894 20.5858 17.4143C20.2107 17.0392 20 16.5305 20 16.0001C20 15.4697 20.2107 14.961 20.5858 14.5859C20.9609 14.2108 21.4696 14.0001 22 14.0001H24V18.0001ZM16 2.28009L20.3 6.00009H15.41L13.52 4.11009L16 2.28009ZM9 2.41009L12.59 6.00009H5.41L9 2.41009ZM23 24.0001H3C2.73478 24.0001 2.48043 23.8947 2.29289 23.7072C2.10536 23.5197 2 23.2653 2 23.0001V9.00009C2 8.73487 2.10536 8.48052 2.29289 8.29298C2.48043 8.10545 2.73478 8.00009 3 8.00009H23C23.2652 8.00009 23.5196 8.10545 23.7071 8.29298C23.8946 8.48052 24 8.73487 24 9.00009V12.0001H22C20.9391 12.0001 19.9217 12.4215 19.1716 13.1717C18.4214 13.9218 18 14.9392 18 16.0001C18 17.061 18.4214 18.0784 19.1716 18.8285C19.9217 19.5787 20.9391 20.0001 22 20.0001H24V23.0001C24 23.2653 23.8946 23.5197 23.7071 23.7072C23.5196 23.8947 23.2652 24.0001 23 24.0001Z" fill="#363636"/>
    <path d="M21.29 15.2902C21.1073 15.4818 21.0037 15.7354 21 16.0002C21 16.2654 21.1054 16.5198 21.2929 16.7073C21.4804 16.8948 21.7348 17.0002 22 17.0002C22.2652 17.0002 22.5196 16.8948 22.7071 16.7073C22.8946 16.5198 23 16.2654 23 16.0002C23.0012 15.8016 22.9431 15.6071 22.8333 15.4416C22.7235 15.2761 22.5669 15.147 22.3835 15.0708C22.2 14.9947 21.9981 14.9749 21.8033 15.0139C21.6086 15.053 21.4299 15.1492 21.29 15.2902Z" fill="#363636"/>
</svg>
